<?xml version="1.0" encoding="utf-8"?>
<!-- Generator: Adobe Illustrator 27.1.1, SVG Export Plug-In . SVG Version: 6.00 Build 0)  -->
<svg version="1.1" id="Layer_1" xmlns="http://www.w3.org/2000/svg" xmlns:xlink="http://www.w3.org/1999/xlink" x="0px" y="0px"
	 viewBox="0 0 20 20" style="enable-background:new 0 0 20 20;" xml:space="preserve">
<style type="text/css">
	.st0{fill:#ECDBFF;}
</style>
<g transform="translate(1 1)">
	<g>
		<path class="st0" d="M9,18.9c-5.5,0-9.9-4.4-9.9-9.9S3.5-0.9,9-0.9s9.9,4.4,9.9,9.9S14.5,18.9,9,18.9z M9,0.9
			C4.5,0.9,0.9,4.5,0.9,9c0,4.5,3.6,8.1,8.1,8.1c4.5,0,8.1-3.6,8.1-8.1C17.1,4.5,13.5,0.9,9,0.9z"/>
	</g>
	<g>
		<path class="st0" d="M12.6,18c-0.4,0-0.8-0.3-0.9-0.8c-0.5-3.3-1.3-6.3-2.3-8.7c-1-2.4-2.6-4.8-4.6-7C4.4,1.1,4.4,0.6,4.8,0.2
			c0.4-0.3,0.9-0.3,1.3,0.1c2.2,2.4,3.8,5,5,7.5c1.1,2.6,1.9,5.6,2.5,9.1c0.1,0.5-0.3,1-0.8,1C12.7,18,12.6,18,12.6,18z"/>
	</g>
	<g>
		<path class="st0" d="M3.6,16.2c-0.2,0-0.3,0-0.5-0.1c-0.4-0.3-0.6-0.8-0.3-1.2c1.8-2.8,4.7-5.1,8-6.1c3-0.9,4.7-0.7,7.5,0.2
			c0.5,0.2,0.7,0.7,0.6,1.1c-0.2,0.5-0.7,0.7-1.1,0.6c-2.5-0.8-3.8-1-6.4-0.2c-2.8,0.9-5.4,2.9-7,5.4C4.2,16,3.9,16.2,3.6,16.2z
			 M1.1,9C0.8,9,0.5,9,0.2,9c-0.5,0-0.9-0.4-0.9-0.9c0-0.5,0.4-0.9,0.9-0.9c3.3,0.1,6.3-0.4,8.9-1.5c2.6-1.1,4.4-2.3,5.4-3.6
			c0.3-0.4,0.9-0.5,1.3-0.2c0.4,0.3,0.5,0.9,0.2,1.3c-1.2,1.6-3.2,2.9-6.2,4.1C7.3,8.5,4.3,9,1.1,9z"/>
	</g>
</g>
</svg>
