<?xml version="1.0" encoding="utf-8"?>
<!-- Generator: Adobe Illustrator 27.1.1, SVG Export Plug-In . SVG Version: 6.00 Build 0)  -->
<svg version="1.1" id="Icons" xmlns="http://www.w3.org/2000/svg" xmlns:xlink="http://www.w3.org/1999/xlink" x="0px" y="0px"
	 viewBox="0 0 195.7 127.6" style="enable-background:new 0 0 195.7 127.6;" xml:space="preserve">
<style type="text/css">
	.st0{fill:#ECDBFF;}
</style>
<g id="Behance">
	<g id="Behance-2">
		<path id="Behance-3" class="st0" d="M56.7,0c5.3-0.1,10.6,0.5,15.7,1.6c4.4,1,8.5,2.7,12.2,5.2c3.4,2.5,6.1,5.8,7.8,9.7
			c2,4.8,2.9,9.9,2.8,15c0.2,5.7-1.2,11.3-4.1,16.1c-3,4.6-7.3,8.2-12.2,10.6c6.7,1.8,12.6,6,16.5,11.8c3.8,6.1,5.7,13.3,5.5,20.5
			c0.1,5.8-1.1,11.5-3.6,16.7c-2.2,4.6-5.5,8.5-9.5,11.6c-4.1,3-8.8,5.3-13.7,6.6c-5.1,1.4-10.4,2.1-15.7,2.1H0V0H56.7z M53.3,51.6
			c4.2,0.2,8.3-1.1,11.6-3.5c3.3-2.9,5-7.2,4.6-11.6c0.1-2.5-0.4-5-1.5-7.3c-0.9-1.8-2.3-3.3-4-4.4c-1.8-1.1-3.7-1.9-5.8-2.2
			c-2.2-0.4-4.5-0.6-6.8-0.6H26.4v29.8h26.8L53.3,51.6z M54.8,105.9c2.5,0,5-0.2,7.5-0.8c2.2-0.5,4.4-1.4,6.2-2.7
			c1.9-1.3,3.3-3,4.3-5.1c1.2-2.6,1.7-5.4,1.5-8.3c0.5-5.3-1.4-10.5-5.2-14.1c-4-3-8.9-4.4-13.8-4.1H26.5v35.1L54.8,105.9z"/>
		<path id="Behance-4" class="st0" d="M138.4,103c4.2,3.9,9.8,5.9,15.5,5.6c4.5,0.1,8.9-1.3,12.5-3.9c3-1.9,5.2-4.8,6.4-8.1h21.1
			c-2.2,9.5-7.7,17.9-15.5,23.8c-7.5,5-16.3,7.5-25.2,7.2c-6.4,0.1-12.7-1.1-18.6-3.6c-5.3-2.2-10.1-5.6-14-9.9
			c-3.9-4.5-6.9-9.7-8.8-15.3c-2.1-6.3-3.2-13-3-19.7c0-6.6,1.1-13.1,3.2-19.3c6-17.9,22.7-29.8,41.5-29.6
			c6.7-0.1,13.4,1.4,19.4,4.6c5.4,3,10.1,7.2,13.6,12.3c3.6,5.3,6.2,11.2,7.6,17.5c1.6,6.7,2.1,13.7,1.7,20.6h-62.8
			C132.3,91.6,134.3,98,138.4,103z M165.9,54.5c-3.6-3.6-8.5-5.4-13.5-5.1c-3.3-0.1-6.6,0.6-9.5,2.1c-2.3,1.3-4.4,3-6.1,5.1
			c-1.5,1.9-2.6,4.2-3.2,6.5c-0.6,2-1,4-1.1,6h38.9C171.1,63.8,169.1,58.7,165.9,54.5L165.9,54.5z"/>
		<rect id="Behance-5" x="127.6" y="6.1" class="st0" width="48.7" height="12.5"/>
	</g>
</g>
</svg>
