<?xml version="1.0" encoding="utf-8"?>
<!-- Generator: Adobe Illustrator 27.1.1, SVG Export Plug-In . SVG Version: 6.00 Build 0)  -->
<svg version="1.1" id="Icons" xmlns="http://www.w3.org/2000/svg" xmlns:xlink="http://www.w3.org/1999/xlink" x="0px" y="0px"
	 viewBox="0 0 127.6 127.6" style="enable-background:new 0 0 127.6 127.6;" xml:space="preserve">
<style type="text/css">
	.st0{fill-rule:evenodd;clip-rule:evenodd;fill:#ECDBFF;}
</style>
<g id="Instagram">
	<path id="Instagram-2" class="st0" d="M63.8,0c17.3,0,19.5,0.1,26.3,0.4c5.3,0.1,10.5,1.1,15.5,3c8.6,3.3,15.3,10.1,18.6,18.6
		c1.9,5,2.9,10.2,3,15.5c0.3,6.8,0.4,9,0.4,26.3s-0.1,19.5-0.4,26.3c-0.1,5.3-1.1,10.5-3,15.5c-3.3,8.6-10.1,15.3-18.6,18.6
		c-5,1.9-10.2,2.9-15.5,3c-6.8,0.3-9,0.4-26.3,0.4s-19.5-0.1-26.3-0.4c-5.3-0.1-10.5-1.1-15.5-3c-8.6-3.3-15.3-10.1-18.6-18.6
		c-1.9-5-2.9-10.2-3-15.5C0.1,83.3,0,81.1,0,63.8s0.1-19.5,0.4-26.3C0.5,32.2,1.5,27,3.4,22C6.7,13.4,13.4,6.7,22,3.4
		c5-1.9,10.2-2.9,15.5-3C44.3,0.1,46.5,0,63.8,0z M89.5,11.9c-6.7-0.3-8.7-0.4-25.8-0.4s-19,0.1-25.8,0.4c-4,0-8.1,0.8-11.9,2.2
		c-5.6,2.1-10,6.5-12.1,12.1C12.7,30,11.9,34,11.9,38c-0.3,6.7-0.4,8.7-0.4,25.8s0.1,19,0.4,25.8c0,4,0.8,8.1,2.2,11.9
		c2.1,5.6,6.5,10,12.1,12.1c3.8,1.4,7.8,2.2,11.9,2.2c6.7,0.3,8.7,0.4,25.8,0.4s19-0.1,25.8-0.4c4,0,8.1-0.8,11.9-2.2
		c5.6-2.1,10-6.5,12.1-12.1c1.4-3.8,2.2-7.8,2.2-11.9c0.3-6.7,0.4-8.7,0.4-25.8s-0.1-19-0.4-25.8c0-4-0.8-8.1-2.2-11.9
		c-2.1-5.6-6.5-10-12.1-12.1C97.6,12.7,93.6,11.9,89.5,11.9z M63.8,85c11.8,0,21.3-9.5,21.3-21.3s-9.5-21.3-21.3-21.3
		S42.5,52,42.5,63.8S52,85,63.8,85z M63.8,31c18.1,0,32.8,14.7,32.8,32.8S81.9,96.5,63.8,96.5S31,81.9,31,63.8S45.7,31,63.8,31
		C63.8,31,63.8,31,63.8,31z M105.5,29.7c0,4.2-3.4,7.7-7.7,7.7c-4.2,0-7.7-3.4-7.7-7.7s3.4-7.7,7.7-7.7
		C102.1,22.1,105.5,25.5,105.5,29.7C105.5,29.7,105.5,29.7,105.5,29.7z"/>
</g>
</svg>
