<?xml version="1.0" encoding="utf-8"?>
<!-- Generator: Adobe Illustrator 27.1.1, SVG Export Plug-In . SVG Version: 6.00 Build 0)  -->
<svg version="1.1" id="Icons" xmlns="http://www.w3.org/2000/svg" xmlns:xlink="http://www.w3.org/1999/xlink" x="0px" y="0px"
	 viewBox="0 0 157.2 127.6" style="enable-background:new 0 0 157.2 127.6;" xml:space="preserve">
<style type="text/css">
	.st0{fill:#ECDBFF;}
</style>
<g id="Twitter">
	<path id="Twitter-2" class="st0" d="M49.5,127.6c59.3,0,91.7-49.1,91.7-91.7c0-1.4,0-2.8-0.1-4.2c6.3-4.6,11.8-10.2,16.1-16.7
		c-5.9,2.6-12.1,4.3-18.5,5.1c6.7-4,11.8-10.4,14.2-17.8c-6.3,3.8-13.2,6.4-20.5,7.8C120.1-2.9,99.7-3.4,86.8,8.8
		c-8.3,7.9-11.8,19.5-9.3,30.7C51.6,38.2,27.4,25.9,11.1,5.8c-8.6,14.7-4.2,33.6,10,43c-5.1-0.2-10.1-1.5-14.6-4v0.5
		c0,15.3,10.8,28.6,25.9,31.6c-4.7,1.3-9.7,1.5-14.6,0.5c4.2,13.1,16.3,22.1,30,22.4c-11.4,9-25.5,13.9-40.1,13.8
		c-2.6,0-5.1-0.2-7.7-0.5C14.8,122.6,31.9,127.6,49.5,127.6"/>
</g>
</svg>
